Coordinates
version=1
nRows=41
nColumns=38
inDegrees=no

Units are S.I. units (second, meters, Newtons, ...)
If the header above contains a line with 'inDegrees', this indicates whether rotational values are in degrees (yes) or radians (no).

endheader
time	pelvis_tilt	pelvis_list	pelvis_rotation	pelvis_tx	pelvis_ty	pelvis_tz	hip_flexion_r	hip_adduction_r	hip_rotation_r	knee_angle_r	ankle_angle_r	subtalar_angle_r	mtp_angle_r	hip_flexion_l	hip_adduction_l	hip_rotation_l	knee_angle_l	ankle_angle_l	subtalar_angle_l	mtp_angle_l	lumbar_extension	lumbar_bending	lumbar_rotation	arm_flex_r	arm_add_r	arm_rot_r	elbow_flex_r	pro_sup_r	wrist_flex_r	wrist_dev_r	arm_flex_l	arm_add_l	arm_rot_l	elbow_flex_l	pro_sup_l	wrist_flex_l	wrist_dev_l
0.52	0.711569	1.40848	1.12312	0.72045	0.0570311	1.02181	0.371845	0.0697973	-0.137633	0.288912	-0.0505473	0	0	0.191351	-0.186271	-0.0976025	1.17711	-0.173843	0	0	-0.134584	0.0914622	-0.0569762	-0.0810238	-0.350274	0.537565	0.514085	0.852138	0	0	-0.0115025	-0.510998	0.400478	0.741645	1.26996	0	0
0.53	0.711078	1.41508	1.11869	0.720117	0.0702794	1.02457	0.34844	0.0725214	-0.130612	0.283288	-0.0453474	0	0	0.208364	-0.183161	-0.102464	1.19259	-0.131944	0	0	-0.14037	0.0864786	-0.0492775	-0.0793683	-0.350047	0.537664	0.512429	0.850244	0	0	-0.0102596	-0.508323	0.41492	0.731981	1.27332	0	0
0.54	0.712262	1.42283	1.11234	0.719679	0.0834989	1.02755	0.320692	0.0746306	-0.124915	0.270789	-0.0430447	0	0	0.223165	-0.180133	-0.109641	1.20096	-0.0938695	0	0	-0.147436	0.0813654	-0.0418362	-0.0774987	-0.349883	0.537826	0.510975	0.848477	0	0	-0.010629	-0.504534	0.423813	0.723315	1.27617	0	0
0.55	0.713771	1.43023	1.10637	0.719121	0.0965397	1.03055	0.290032	0.0763518	-0.121774	0.24991	-0.0444085	0	0	0.238115	-0.177058	-0.115989	1.20314	-0.064905	0	0	-0.154323	0.0767529	-0.0357493	-0.0751586	-0.349771	0.53865	0.509525	0.847612	0	0	-0.0126944	-0.499703	0.427091	0.715574	1.27747	0	0
0.56	0.718128	1.43746	1.0983	0.718461	0.109466	1.03354	0.259124	0.0777606	-0.12228	0.228299	-0.0479197	0	0	0.252703	-0.174437	-0.12194	1.19949	-0.040503	0	0	-0.161389	0.0727887	-0.0305171	-0.0729616	-0.349809	0.53933	0.508751	0.846791	0	0	-0.0155522	-0.494307	0.426941	0.708535	1.27676	0	0
0.57	0.723302	1.4441	1.08982	0.71775	0.122351	1.03638	0.230627	0.0784903	-0.127456	0.211783	-0.0521432	0	0	0.267385	-0.172403	-0.128138	1.19075	-0.0215403	0	0	-0.167776	0.0691773	-0.0257815	-0.0715005	-0.349844	0.539328	0.508877	0.845667	0	0	-0.0194142	-0.488472	0.423593	0.702185	1.27341	0	0
0.58	0.73502	1.45017	1.07527	0.716941	0.135167	1.03911	0.20253	0.080124	-0.136173	0.195256	-0.057741	0	0	0.281707	-0.171496	-0.134651	1.17735	-0.0068206	0	0	-0.174039	0.0667218	-0.0211611	-0.0707787	-0.350215	0.538779	0.509988	0.844419	0	0	-0.0233034	-0.481671	0.417833	0.695675	1.26769	0	0
0.59	0.738551	1.45543	1.06893	0.716094	0.147897	1.04147	0.173497	0.0807888	-0.141706	0.174237	-0.0648609	0	0	0.296681	-0.17011	-0.142132	1.15983	0.00518127	0	0	-0.178723	0.0636671	-0.0167634	-0.071611	-0.35091	0.536927	0.513238	0.843276	0	0	-0.0278114	-0.474939	0.410575	0.68988	1.26017	0	0
0.6	0.736496	1.45984	1.06772	0.715239	0.160475	1.04353	0.14523	0.0816002	-0.14763	0.150251	-0.0735889	0	0	0.311863	-0.16873	-0.151068	1.13789	0.0150554	0	0	-0.182673	0.0603237	-0.0118172	-0.0730811	-0.351857	0.533955	0.517738	0.842299	0	0	-0.032022	-0.468295	0.403154	0.684433	1.25255	0	0
0.61	0.72908	1.46378	1.07142	0.714373	0.172958	1.04532	0.120386	0.0815689	-0.155605	0.132328	-0.0813748	0	0	0.326565	-0.167541	-0.162589	1.11142	0.0226384	0	0	-0.186311	0.0565423	-0.00646724	-0.0751728	-0.353128	0.530191	0.523594	0.842158	0	0	-0.0361109	-0.462033	0.395517	0.679889	1.24471	0	0
0.62	0.723086	1.46749	1.07319	0.713487	0.185423	1.04695	0.097574	0.0819084	-0.168356	0.118056	-0.088291	0	0	0.339863	-0.16752	-0.177645	1.08017	0.0276917	0	0	-0.19023	0.0528902	-0.000726498	-0.077136	-0.354544	0.526398	0.529696	0.843208	0	0	-0.0396381	-0.455843	0.388056	0.67549	1.23657	0	0
0.63	0.715091	1.4715	1.0762	0.712625	0.197891	1.04838	0.0741273	0.0817366	-0.176888	0.103212	-0.0947251	0	0	0.351243	-0.168574	-0.197778	1.04409	0.0297148	0	0	-0.194545	0.0485983	0.00528515	-0.0792556	-0.356163	0.522319	0.536707	0.845279	0	0	-0.0429619	-0.450213	0.380926	0.67174	1.22877	0	0
0.64	0.717156	1.47664	1.06765	0.711852	0.21041	1.04973	0.0488436	0.0820884	-0.180337	0.087272	-0.101585	0	0	0.358903	-0.172028	-0.224567	1.00333	0.0273055	0	0	-0.201158	0.0444846	0.0125292	-0.0814725	-0.358239	0.515669	0.545133	0.846831	0	0	-0.0455646	-0.444667	0.374218	0.668357	1.22155	0	0
0.65	0.724408	1.48185	1.0529	0.711123	0.222923	1.05087	0.0243328	0.0826717	-0.179664	0.0721142	-0.1069	0	0	0.364524	-0.176864	-0.255846	0.958681	0.0208502	0	0	-0.208356	0.0403653	0.0208324	-0.0837727	-0.360743	0.508802	0.554193	0.848242	0	0	-0.0473837	-0.43916	0.368069	0.66505	1.21566	0	0
0.66	0.730521	1.48633	1.03855	0.710409	0.235358	1.05174	0.00207539	0.0828664	-0.173844	0.0573484	-0.111982	0	0	0.368972	-0.182156	-0.290885	0.909701	0.00978086	0	0	-0.21512	0.0361272	0.029675	-0.0857555	-0.363509	0.502293	0.563245	0.849579	0	0	-0.0483441	-0.433647	0.362545	0.661244	1.21241	0	0
0.67	0.527807	1.48402	1.22974	0.710114	0.247651	1.04959	0.00823654	0.0531714	-0.165757	0.0630324	-0.106085	0	0	0.386787	-0.171484	-0.326032	0.860565	-0.00160033	0	0	-0.203027	0.0167109	0.0384426	-0.0957788	-0.364649	0.491564	0.578476	0.853178	0	0	-0.0566981	-0.434891	0.357618	0.665905	1.21007	0	0
0.68	0.514507	1.48661	1.23535	0.709241	0.260166	1.04983	-0.0123131	0.0523275	-0.166138	0.0526593	-0.105574	0	0	0.389554	-0.171375	-0.354815	0.801675	-0.0154492	0	0	-0.206343	0.0120287	0.0459537	-0.096403	-0.36631	0.488545	0.583356	0.856362	0	0	-0.0571135	-0.430201	0.355093	0.660615	1.2101	0	0
0.69	0.505631	1.48942	1.23725	0.708315	0.272619	1.04984	-0.0331675	0.0512304	-0.170614	0.0426567	-0.107934	0	0	0.390351	-0.168347	-0.378282	0.738043	-0.0327619	0	0	-0.210627	0.00759078	0.0526723	-0.0968548	-0.368343	0.485486	0.589157	0.857591	0	0	-0.0571386	-0.425837	0.351719	0.656011	1.21209	0	0
0.7	0.487598	1.49104	1.24871	0.707253	0.285081	1.04946	-0.0526299	0.0495264	-0.174988	0.0326888	-0.110836	0	0	0.39094	-0.161574	-0.395854	0.669773	-0.0512205	0	0	-0.213309	0.00295594	0.0585322	-0.0973484	-0.370221	0.481793	0.594385	0.856111	0	0	-0.0572437	-0.421536	0.347943	0.651057	1.21557	0	0
0.71	0.456466	1.49161	1.27442	0.706055	0.297526	1.04863	-0.0710847	0.0468782	-0.176316	0.0215684	-0.112907	0	0	0.391801	-0.150572	-0.406387	0.597971	-0.0696869	0	0	-0.214453	-0.00223822	0.0632508	-0.0974404	-0.371951	0.480203	0.598327	0.854675	0	0	-0.0571356	-0.417907	0.344778	0.646362	1.21968	0	0
0.72	0.425225	1.49134	1.30087	0.704769	0.30994	1.04744	-0.0880666	0.0442602	-0.177063	0.0125738	-0.11382	0	0	0.392197	-0.136676	-0.409987	0.522352	-0.0872901	0	0	-0.214951	-0.00721645	0.0674608	-0.097143	-0.373636	0.480278	0.601512	0.852813	0	0	-0.0567085	-0.414755	0.342144	0.642071	1.22364	0	0
0.73	0.396273	1.48982	1.32557	0.703401	0.322343	1.04586	-0.103117	0.041923	-0.178126	0.00484527	-0.113229	0	0	0.392106	-0.120347	-0.405183	0.442348	-0.103213	0	0	-0.214337	-0.0116896	0.0712134	-0.0967115	-0.375625	0.481716	0.604393	0.851742	0	0	-0.0562838	-0.41194	0.33951	0.638161	1.22754	0	0
0.74	0.369157	1.48654	1.34986	0.701925	0.334759	1.04387	-0.115582	0.0399609	-0.181302	0	-0.11086	0	0	0.391163	-0.101173	-0.387423	0.355981	-0.119274	0	0	-0.211861	-0.0155313	0.0736644	-0.0960547	-0.377278	0.483117	0.606082	0.850283	0	0	-0.0559957	-0.409204	0.33601	0.634182	1.23162	0	0
0.75	0.354722	1.48162	1.36185	0.700406	0.347211	1.04142	-0.125608	0.0393191	-0.185177	0	-0.107307	0	0	0.390338	-0.0827614	-0.361835	0.269367	-0.131403	0	0	-0.207765	-0.0179257	0.0759466	-0.095946	-0.379301	0.484921	0.608202	0.849594	0	0	-0.0561876	-0.406611	0.332421	0.630907	1.23477	0	0
0.76	0.352721	1.47632	1.36083	0.698823	0.359835	1.03854	-0.134622	0.0394104	-0.187992	0	-0.10227	0	0	0.391374	-0.0686467	-0.34102	0.193745	-0.13974	0	0	-0.203186	-0.018967	0.0790053	-0.0972757	-0.382374	0.485969	0.612155	0.84904	0	0	-0.0572332	-0.404138	0.328653	0.628959	1.23808	0	0
0.77	0.355384	1.47099	1.35468	0.69723	0.372669	1.03533	-0.143239	0.0398425	-0.189972	0	-0.0964601	0	0	0.394238	-0.0576817	-0.324228	0.129489	-0.14407	0	0	-0.198406	-0.0196035	0.0826023	-0.0997637	-0.385714	0.485849	0.617234	0.84839	0	0	-0.0591462	-0.402126	0.324539	0.628566	1.24141	0	0
0.78	0.359397	1.46528	1.34717	0.695647	0.385653	1.03192	-0.151398	0.0406299	-0.19076	0	-0.090014	0	0	0.397981	-0.0486345	-0.305947	0.071986	-0.14744	0	0	-0.193187	-0.0199291	0.0860049	-0.102447	-0.388712	0.484995	0.622113	0.847303	0	0	-0.0615531	-0.40033	0.319705	0.628676	1.2458	0	0
0.79	0.3653	1.45916	1.33784	0.694069	0.398799	1.02838	-0.158135	0.0416983	-0.191124	0	-0.0825389	0	0	0.402882	-0.0418599	-0.28879	0.0226012	-0.150529	0	0	-0.187379	-0.0200088	0.0890134	-0.104897	-0.391224	0.484185	0.625989	0.846673	0	0	-0.0646927	-0.398871	0.313965	0.629371	1.25097	0	0
0.8	0.373133	1.45419	1.32662	0.692439	0.412124	1.02493	-0.165227	0.0425213	-0.191359	0	-0.0783011	0	0	0.410514	-0.0376234	-0.283086	0	-0.150387	0	0	-0.182849	-0.0202883	0.0915478	-0.106691	-0.393251	0.483702	0.628949	0.846832	0	0	-0.0680421	-0.398437	0.309852	0.63103	1.25367	0	0
0.81	0.376418	1.44936	1.32077	0.690689	0.425502	1.02156	-0.170916	0.0424272	-0.191584	0.00422629	-0.0723328	0	0	0.420452	-0.0339027	-0.2791	0	-0.147593	0	0	-0.178429	-0.0210704	0.093348	-0.10887	-0.394688	0.482476	0.632206	0.846464	0	0	-0.0715747	-0.39781	0.303883	0.633066	1.25785	0	0
0.82	0.37643	1.44614	1.31732	0.688981	0.438903	1.01857	-0.176404	0.0407822	-0.190875	0.0150437	-0.0652976	0	0	0.428722	-0.0302244	-0.27622	0	-0.140987	0	0	-0.176551	-0.0228772	0.0955445	-0.109884	-0.395504	0.480787	0.634951	0.844916	0	0	-0.0745342	-0.396736	0.295925	0.635038	1.26331	0	0
0.83	0.375414	1.44629	1.31449	0.687268	0.452422	1.01618	-0.186856	0.0372532	-0.187008	0.0249721	-0.0610644	0	0	0.433418	-0.0261583	-0.275013	0	-0.134916	0	0	-0.178766	-0.0258586	0.0977975	-0.109398	-0.395502	0.479198	0.63639	0.84245	0	0	-0.0760166	-0.395902	0.289193	0.636218	1.26816	0	0
0.84	0.37671	1.44898	1.311	0.685387	0.466334	1.01432	-0.198573	0.0338203	-0.184744	0.0366668	-0.0586751	0	0	0.435053	-0.0216031	-0.273177	0	-0.130209	0	0	-0.183813	-0.029363	0.0991647	-0.108614	-0.394271	0.478426	0.636268	0.839995	0	0	-0.0763489	-0.395213	0.283099	0.636467	1.2732	0	0
0.85	0.379107	1.455	1.30842	0.683286	0.480638	1.01303	-0.213146	0.0292858	-0.18557	0.0502376	-0.0592618	0	0	0.432129	-0.0159029	-0.269213	0	-0.128202	0	0	-0.193123	-0.0337486	0.0988269	-0.106699	-0.392031	0.479643	0.634782	0.837665	0	0	-0.076321	-0.394409	0.274451	0.637079	1.28172	0	0
0.86	0.381316	1.46062	1.30652	0.681103	0.495314	1.01198	-0.22626	0.0243498	-0.188149	0.0655683	-0.0640575	0	0	0.432532	-0.0122395	-0.272792	0.0302943	-0.12863	0	0	-0.201098	-0.0377657	0.0978059	-0.104216	-0.388503	0.482308	0.629952	0.835182	0	0	-0.0763173	-0.393761	0.268303	0.63584	1.28852	0	0
0.87	0.386126	1.46641	1.30153	0.678917	0.510496	1.01113	-0.238265	0.0188707	-0.192177	0.0840754	-0.0740056	0	0	0.433119	-0.010572	-0.280382	0.0735657	-0.128355	0	0	-0.207987	-0.0416145	0.0973368	-0.101276	-0.383852	0.487458	0.621477	0.831067	0	0	-0.0770851	-0.393358	0.263689	0.633839	1.29449	0	0
0.88	0.388935	1.4716	1.29787	0.67674	0.526172	1.01038	-0.248553	0.0125908	-0.191377	0.104471	-0.0880518	0	0	0.432706	-0.00957552	-0.286231	0.116755	-0.131873	0	0	-0.212463	-0.0455095	0.0973183	-0.0987655	-0.378199	0.494688	0.610303	0.82644	0	0	-0.0785289	-0.393686	0.262585	0.630466	1.2987	0	0
0.89	0.377698	1.47557	1.3066	0.674564	0.542016	1.00978	-0.254705	0.00399274	-0.182614	0.128278	-0.106915	0	0	0.431683	-0.00729014	-0.289906	0.151639	-0.146575	0	0	-0.214585	-0.0505314	0.0978466	-0.095554	-0.37158	0.503731	0.596488	0.820935	0	0	-0.080376	-0.394204	0.26341	0.625675	1.301	0	0
0.9	0.348531	1.47566	1.33494	0.672252	0.557998	1.00919	-0.25331	-0.00545973	-0.170216	0.156283	-0.131094	0	0	0.434784	-0.0031554	-0.288804	0.179063	-0.16989	0	0	-0.210782	-0.0561809	0.0957288	-0.0919628	-0.362734	0.514705	0.57906	0.814556	0	0	-0.0833637	-0.39503	0.265296	0.618661	1.30077	0	0
0.91	0.310321	1.47273	1.37261	0.669955	0.573756	1.00887	-0.243776	-0.0154024	-0.151869	0.190428	-0.160744	0	0	0.441272	-0.000393249	-0.28585	0.204615	-0.190443	0	0	-0.203369	-0.0622858	0.0925973	-0.0880286	-0.353093	0.527048	0.561223	0.807259	0	0	-0.0860667	-0.395839	0.268363	0.609702	1.29853	0	0
0.92	0.275283	1.46809	1.40789	0.667558	0.589229	1.00883	-0.227369	-0.0251403	-0.131229	0.23137	-0.197858	0	0	0.448812	-6.04467e-05	-0.280922	0.232933	-0.199919	0	0	-0.194549	-0.0676092	0.0890266	-0.0851942	-0.343857	0.537678	0.545821	0.797549	0	0	-0.0876509	-0.396308	0.273072	0.599682	1.29417	0	0
